/* XPM */
static char *_3d753ccaedc4426b982ca6b140e9622tg5DsRHFBGUewa8m[] = {
/* columns rows colors chars-per-pixel */
"50 50 91 1 ",
"  c #5C261C",
". c #5D2A1E",
"X c #622A1F",
"o c #722D1E",
"O c #75321F",
"+ c #5D2C24",
"@ c #552E2A",
"# c #5D2E29",
"$ c #5A3024",
"% c #5D322B",
"& c #602720",
"* c #642D24",
"= c #692E24",
"- c #612F2B",
"; c #712E21",
": c #653125",
"> c #6B3326",
", c #64332B",
"< c #6B352A",
"1 c #64392F",
"2 c #6C392D",
"3 c #733425",
"4 c #7A3425",
"5 c #763826",
"6 c #7E3926",
"7 c #72362A",
"8 c #7B3729",
"9 c #733A2D",
"0 c #7A3B2C",
"q c #643631",
"w c #6B3731",
"e c #653933",
"r c #6C3B33",
"t c #653C3A",
"y c #6D3E3A",
"u c #723731",
"i c #733D33",
"p c #7A3E32",
"a c #723F39",
"s c #7A3F39",
"d c #7D402F",
"f c #6F4134",
"g c #6D423C",
"h c #744135",
"j c #7B4235",
"k c #74433B",
"l c #7B453A",
"z c #74483F",
"x c #7C493D",
"c c #6F4642",
"v c #6F4843",
"b c #744641",
"n c #7A4741",
"m c #744A43",
"M c #7C4B43",
"N c #764E49",
"B c #7D4D49",
"V c #7F5144",
"C c #75504A",
"Z c #7D524C",
"A c #7F5751",
"S c #813C2C",
"D c #813E32",
"F c #834434",
"G c #82463B",
"H c #83493D",
"J c #8A4B3E",
"K c #824741",
"L c #834C43",
"P c #894E43",
"I c #834D4A",
"U c #8A4F49",
"Y c #855146",
"T c #8B5245",
"R c #83524B",
"E c #8B544B",
"W c #8E594D",
"Q c #905142",
"! c #90554B",
"~ c #935A4F",
"^ c #835651",
"/ c #8B5652",
"( c #845955",
") c #8C5A53",
"_ c #8D5D59",
"` c #935750",
"' c #945A52",
"] c #995E56",
"[ c #925E5B",
"{ c #8B615B",
"} c #92615C",
/* pixels */
"tetyeqaaiiaywgvgkkbqayaaarwaywqy122i<39<*<*=<<<.,#",
"(A({Im///))RmM^CZBByMbBnMnngkaaagrlssaii9iwui9r:1q",
"(({{ZbI)/))RmmCNBBMykgbkbMbyyayyrrkksassiiuuirr,,,",
"tegkq-ey1wie#,1+qeq#,,##+#++#++@@@+*+&*&&*&     ++",
"MzMRIBIMknLULLMilLLLLMjillxlBkahkalssu7upp7799<7>>",
")MR)_[_)IL``EWWxLWTWYLhhxMlIIaakkalaiup8p0pup03799",
"^zVZR^//zlMMxnxihMkkikewwrweeq#,q-qq-quw<<,*22&===",
"f$ee%,qrr2hi<rieri<w<iwwwrwqqeeeqq-q****==**2w&=<=",
"^))/)kE']E]'lKWUPPPGGPHLTLllKKxlliplpppDu0997pp788",
"{[}__ME']`]`KL/L!!TGGPJLTPlpllllppjljpDp8977uu7>j0",
"vgNmgqaaria2$1yqwuu*<2<<wu-<,##-&+**&X&X***#:<**9>",
"v%vmcykg1kzryggqknLnMLhikkknMaryrraaw2<w<iw2kaiii9",
"^gA((((/xR)RZRMyUE)ETYjiYLKKKklLlnGGjihd9pi9lp9p90",
"(yZ^^^(ZgMZMmMbwUYELLYhhjlllkiihiipp73><<9770p7737",
"e#qtt@t%@%e,%,e%,11-,r:<<29ww2*#--*<=*X..X*=3<>=>*",
"BBBAZtCCNNCmgmZNMMMxMRMYMMnhzbkhyrapishfh9pppDp7p2",
"/[/_(bZAAZ^ZkMWRIRYzMWYYRTsMnkkkzfhGGphjijlFpSp0p9",
"IIIIBtcbggmferzkrhi<9j999i<<<<1:,$:2>=>>>>3O;o;=i<",
"w-etqtte%wh2<ih>jjljll99ilpip999h><07>99>2><397773",
"^cZ^B^I^fRWWE'TlTT!T!EGHPEPPLlxGJHFljdjjjjh0997<iu",
"AgZ(Z^IUiL`W!~TlJY!!EExKLTLLKhllGFljh9iihhi99299><",
",$1ewuaa<upi7ip>79i<29:<,1*:>:.:***:..#+  &&><773<",
"xMxMKusPDKPGssPjGHHi9jhhkkrfh2fhr9ii2rfy2ippSDDppi",
"YWYWUKU`]!``lKERTETllLMZBmfhzhhffkhhihgerip8088>i3",
"xzRVMfMYYYYYkhRMMBMwykkgcyeeeeyee,wryqqq#e<<87>>u<",
"f$wwr,fr<12r,,r:aai<ey,wre,1%$,12>,w-#%$-iljs09hss",
"M<nIILLM<FHHHLHiGHJFJJjFlljxj7jHJFjFp099ipd5755580",
"RiIUREYL>GYYE!YlPPPJQJ0jGlhlj9FGJFFF00d9p923905553",
"g+krrwr1.1221hw:iyuusi<2rr:1qqwwi<32>:<>+<rfff222<",
"gwkkr1fiijj2<hreayywpliisieeryaw1<2929i29hxxHFxxzz",
"HLKPK7GHPKPGilMMklsuGJFHHj9ispDs900SSSdd063OSS53><",
"lLllK<GPPlLnwxBUGGl0FJFFHj9jjuis25dSS0d53566S444>>",
"<.$,<wwr+eqq%%t%,<<2ff,<2112<,>:::55>o>:X>>>>>99iw",
"kfhxlMMBqbggccbtjlllxhh2ffhljhhjjjxjp99999h99ippjj",
"h2lxLULL2kkzzmbrHJHJJFhfjllGFljFFFFF80Fdjjj0983307",
",:1hiahi#wfrrrr<9Fjjjh9599p9975866OO33353<3>9997;4",
"e%%g%eye,re,,rrw2i9221222<2,>,<99<>>>>::<,<129i92<",
"gggzgfkkzMmfanMMllkhllfhzhiih9ihfffdfff5f2f212<:1:",
"gggzfekzzxMhhxGHGGjjlldhxjppjipid2ffffhf::<>><>>=<",
"%%%f%$2r<1i:>i2979<3hd23<>>>993<<:X:>>:X:<9<<><>ii",
"k:ikilll:hhi2hh*9jj9jjXddhdjj7ppj9ppi999hjdf232dp7",
"x<axaklk:hkxxMx>9dFjHF:dhdhjd>99p0pp7<990h9ff5599>",
"k,ihrkha,iaakbr+hhhhxd:hh29jh<2999i9<=72<2>:2<:>3=",
"r-eie:ireaiqeir:h2<>h2:25::29<22,<7>====<299ddhdu9",
"h9hx9<h9pjp<3pGllj830d5ddO:5i0pd9325980730006548p3",
"hhhxr>hhipp>=iippp999d05F5550p9j53<00p09>3553Oo303",
"1,,21#2,:2r,:2:*:<,>2>>>9:<2<:*w:::>:<<>>229hjjll9",
"rw1fiwai2ei2ilr:2229h22hf2jjr:<i920firhjhhhhhjjjGi",
"a>2iss7p<ipp889<700p0p<97u8up93p0580><033333>33o43",
"i<9pDD0p<ipp600>700SDD=90800u33864S8>58343747344;;"
};
