/* XPM */
static char *b38eec9ee6494409920cdea0623fd253mP4eaVormaKzbMYp[] = {
/* columns rows colors chars-per-pixel */
"50 50 238 2 ",
"   c #130302",
".  c #1E0B04",
"X  c #160C0B",
"o  c #190907",
"O  c #1A110C",
"+  c #1A0E11",
"@  c #1C1312",
"#  c #220C05",
"$  c #2B0E03",
"%  c #220E09",
"&  c #250300",
"*  c #330C00",
"=  c #3A0800",
"-  c #241105",
";  c #2B1103",
":  c #27130A",
">  c #371405",
",  c #2B1B14",
"<  c #251B1A",
"1  c #2A1D1B",
"2  c #241715",
"3  c #321E19",
"4  c #2B201E",
"5  c #36221B",
"6  c #2D2120",
"7  c #342523",
"8  c #3A2622",
"9  c #3C2A25",
"0  c #3B2B2B",
"q  c #352929",
"w  c #491804",
"e  c #561903",
"r  c #541F12",
"t  c #48160D",
"y  c #59260B",
"u  c #462918",
"i  c #582813",
"p  c #502B12",
"a  c #642303",
"s  c #6D2A04",
"d  c #6C2B0C",
"f  c #682609",
"g  c #732B0C",
"h  c #7B2B0D",
"j  c #742906",
"k  c #7C340C",
"l  c #773209",
"z  c #652513",
"x  c #6B2614",
"c  c #6C2B13",
"v  c #662A18",
"b  c #732C13",
"n  c #7B2C14",
"m  c #722D1B",
"M  c #782A18",
"N  c #6A3719",
"B  c #743213",
"V  c #7C3313",
"C  c #793719",
"Z  c #66300A",
"A  c #432D26",
"S  c #45322D",
"D  c #493427",
"F  c #583929",
"G  c #443332",
"H  c #4C3934",
"J  c #523D35",
"K  c #5E2E20",
"L  c #643D26",
"P  c #743221",
"I  c #651E02",
"U  c #78431D",
"Y  c #5C4334",
"T  c #55423B",
"R  c #5B453B",
"E  c #59463A",
"W  c #5F402C",
"Q  c #684329",
"!  c #774628",
"~  c #674937",
"^  c #754C34",
"/  c #78523A",
"(  c #5C4942",
")  c #624E44",
"_  c #685348",
"`  c #725C4D",
"'  c #775946",
"]  c #725D54",
"[  c #655B59",
"{  c #7A6355",
"}  c #776052",
"|  c #5F6468",
" . c #7A7576",
".. c #716867",
"X. c #85360E",
"o. c #832C13",
"O. c #832A17",
"+. c #823513",
"@. c #883817",
"#. c #923E15",
"$. c #852D0C",
"%. c #98430D",
"&. c #8A4416",
"*. c #944416",
"=. c #9B4415",
"-. c #994819",
";. c #8C4714",
":. c #A2450C",
">. c #AC4A0E",
",. c #A8460A",
"<. c #B34D0D",
"1. c #A44B15",
"2. c #AB4C14",
"3. c #A44C1A",
"4. c #AC4E1A",
"5. c #A24511",
"6. c #B14D12",
"7. c #B04F1A",
"8. c #A6511C",
"9. c #AC521C",
"0. c #AE5116",
"q. c #B2521C",
"w. c #B75215",
"e. c #884C27",
"r. c #944D24",
"t. c #89522D",
"y. c #96542B",
"u. c #8A5838",
"i. c #975B36",
"p. c #804E34",
"a. c #A45424",
"s. c #AB5522",
"d. c #A35B2C",
"f. c #AC5C2B",
"g. c #A85826",
"h. c #B35723",
"j. c #A45D34",
"k. c #A75C35",
"l. c #A75326",
"z. c #9B623A",
"x. c #BA6C2C",
"c. c #B5672C",
"v. c #AC6B3D",
"b. c #A76538",
"n. c #B36434",
"m. c #BC6D33",
"M. c #B46C3B",
"N. c #BA6C3A",
"B. c #B46B35",
"V. c #BA7237",
"C. c #B36B2D",
"Z. c #C27235",
"A. c #875E45",
"S. c #925F42",
"D. c #8A634A",
"F. c #976648",
"G. c #866956",
"H. c #976D52",
"J. c #98735A",
"K. c #AC6C43",
"L. c #A56B48",
"P. c #B56D41",
"I. c #AA714E",
"U. c #B77347",
"Y. c #A77354",
"T. c #B57958",
"R. c #A46E52",
"E. c #8C786E",
"W. c #A87D66",
"Q. c #C37C50",
"!. c #908379",
"~. c #B58C71",
"^. c #BC804C",
"/. c #CE8C58",
"(. c #D59866",
"). c #D58E60",
"_. c #7A7E84",
"`. c #7E8287",
"'. c #82868C",
"]. c #8B8788",
"[. c #968886",
"{. c #8A8C93",
"}. c #96959A",
"|. c #908F96",
" X c #A79387",
".X c #B4958A",
"XX c #B7A499",
"oX c #9A9CA4",
"OX c #AAABAD",
"+X c #A5A6AA",
"@X c #B4ABA5",
"#X c #ABACB3",
"$X c #A7AAB3",
"%X c #ACB5B4",
"&X c #B3B2BB",
"*X c #B8B9B9",
"=X c #B5AFB3",
"-X c #9FA2AB",
";X c #D0AD95",
":X c #CDB7A8",
">X c #C4BCB5",
",X c #D2B4A2",
"<X c #B8C2BE",
"1X c #C9C5BC",
"2X c #D7C7B9",
"3X c #E5C5AE",
"4X c #BBBCC1",
"5X c #B6B6C1",
"6X c #C1BFC1",
"7X c #BCC9CD",
"8X c #B9C5C7",
"9X c #ACC4DD",
"0X c #ABCCDA",
"qX c #A7CED9",
"wX c #BBCCD4",
"eX c #B4CCD9",
"rX c #BCCEDB",
"tX c #B4C9D8",
"yX c #AED0DD",
"uX c #BBD2DC",
"iX c #B6D1DB",
"pX c #AECDE2",
"aX c #B8CDE7",
"sX c #BCD3E2",
"dX c #B8D2E7",
"fX c #C2C3C4",
"gX c #C4C5CB",
"hX c #C8CBCA",
"jX c #D7CDC8",
"kX c #C4CBD5",
"lX c #CACAD4",
"zX c #C3CDDC",
"xX c #C8CBDA",
"cX c #C7D4D8",
"vX c #D2D2D0",
"bX c #E6D5CB",
"nX c #C4D6E7",
"mX c #C5D8F1",
/* pixels */
"9X9XqXqXqXqXqXpXaXdXaXaXaXaXdXvX,Xt.y.d.8.c.>.<.<.<.,.=.#.#.@.@.b b O.O.P M b b f B C M i > o + . # ",
"5X9X9X9XqX9XqXpXaXaXaXaXaXaXiXhX3Xi.y.d.8.q.<.<.<.<.>.:.=.#.@.C B C O.O.O.M x g d V C M v w . . . . ",
"pX9XpX9XqXyXqXpXaXaXaXaXmXaXsXvX3Xz.y.a.8.q.<.w.<.<.2.5.*.@.+.k b b O.O.O.h g f l V o.M v t # - . . ",
"pX9X9XpXqXyXpXpXaXaXaXmXmXmXnXvX;Xb.y.a.9.0.>.w.<.<.2.=.*.@.V d I j h o.O.$.h h X.+.$.n m e $ : % # ",
"9X9XeX0XyXyXyXdXdXaXdXmXnXnXnXvX/.i.y.f.q.0.<.w.w.6.2.=.*.@.B d s g $.O.O.$.+.k +.X.$.$.O.e * ; # # ",
"eX9XtXeXiXiXiXdXdXaXmXmXzXnXcX>XF.y.l.c.h.2.6.w.w.7.3.=.#.C b c B V @.@.#.@.+.k X.X.$.O.O.e = $ # # ",
"9XeXeXeXeXiXuXdXaXaXmXnXwXcXlX Xt.a.l.h.0.>.0.0.7.2.5.#.@.B c f c B +.O.O.O.B k k X.X.@.n r = ; # # ",
"eXeXeXwXrXrXuXsXaXaXmXnXkXcXgXE.e.s.s.3.>.:.<.,.2.5.#.X.n f z y y f b n O.h l s k +.@.O.P e * ; % # ",
"eXeXrXwXwXrXzXdXaXsXsXnXnXjXbX Xy.8.s.2.,.,.6.6.7.2.#.#.O.B c v y y x b M x d C C +.@.O.P r > - # # ",
"eXrXwXzXwXzXzXnXaXnXnXuXcXlXbX.Xy.3.3.3.5.,.6.7.7.3.=.@.C m x i y i z x M x c c B C n C M r $ - # . ",
"eXwXwXkXkXkXzXnXuXsXsXuXlXvXbX.Xr.-.4.2.2.6.7.7.7.3.=.@.n b x i i i v x x x c c c B n M P r $ . # . ",
"eXwXwXzXkXkXzXzXiXuXuXrXxXjX:XW.y.8.4.4.7.2.7.q.h.3.#.O.V d z z i i z x x x c c Z l n M m p ; . # # ",
"wXwXwXcXhXlXxXnXsXsXuXcXvXvX:XA.d.9.s.q.7.7.7.7.h.3.#.+.g g z z i v c b M b B Z f s j n m i ; - % % ",
"qX8XwXcXlXlXxXzXsXsXuXcXvXbX.X^ k.s.h.9.4.4.7.4.4.3.#.$.h c c z N v x M M m l Z s j j j m y > - # % ",
"8XwXwXhXlXxXxXzXuXiXiXcXhXbX~.! k.f.9.4.4.4.4.q.4.#.#.$.h x c c c d M n O.O.k l j l j h B y > ; # % ",
"8XiXwXvXlXlXxXxXsXuXiXcX<XbXXX/ k.s.4.1.2.4.4.q.4.=.X.n g b b m v c M M +.C k l X.k j h b y > ; % % ",
"7X7XgXlXlXlXkXzXuXcXuXcXjXjX,X/ k.q.2.2.,.>.>.1.1.-.@.c x m P v v v K N c s a s s s s f v K 3 & # . ",
"7X7XlXlXlXlXxXkXuXuXhXcXhX2X;X! f.h.6.2.<.<.<.2.-.&.@.C m c x v K v v i e w w e e e a C P p > 3 # # ",
"7XwXgXlXlXlXxXzXcXiXcXhX1X2X,Xu.l.s.7.6.<.<.0.9.l.r.O.m m x z z r P r = w t.b.;.X.s e e y t * $ % % ",
"wX4XgXlX6XlXkXkXcXwXwXjX2XbX3XY.l.h.7.>.,.,.2.8.l.#.b f z x x x z = e I.(.^.^.(./.M.@.s y K t & $ % ",
"8X8XgXhXhXhXkXzXcX7XkXhX2X3X;XL.l.f.q.,.,.,.2.1.*.+.f e z m m f w e.Q.).(.(./.V.V./.U.y.m e w * $ : ",
"4X8XfXgXfXhXgXgXwX7XhXjX2X,X^.u.f.h.q.>.,.,.2.1.*.+.j I x M b I i./.).Q.C.C.x.C.9.f.P.b.C e * * $ : ",
"<X8X4XfXfXhX8XhX7X7X7X1X2X~.t.y.f.h.4.,.:.>.2.-.r.k s c b d b @.U.V.V.V.V.C.C.C.Z.x.b.n.z.C w $ $ % ",
"<X<X*XfXfXfXfX8XwX1X<X1X3X~.! b.l.s.1.%.#.,.1.=.r.j I m C x e.Q.V.V.V.C.C.x.x.x.x.x.c.B.P.b.Z & $ % ",
"*X<X1X*X1XfXfX8X*XkX<X2X,XY.y.r.g.8.1.:.:.5.-.-.#.I d C d C i.U.N.m.m.x.V.x.x.x.x.s.c.n.b.v.e.>   2 ",
"<X%X*X<X*X>X4X4X8XfX*X3X;Xz.y.a.g.9.8.1.5.%.-.-.@.f a a d y.T.P.N.m.V.m.V.C.C.x.x.c.m.N.d.v.y.p   2 ",
"%X<X%X*X>X*X4X4X4X*X>X:X~.t.y.g.g.9.8.1.1.-.-.*.V a B y.i.b.Q.N.V.V.V.V.V.V.C.V.x.c.C.n.d.b.d.U   O ",
"%X%X%X*X5X4X*X5X4X*X1X,X^./ a.f.8.8.1.1.8.8.*.@.s d u.T.T.K.M.N.M.V.M.V.V.C.C.V.m.f.C.C.a.d.b.!     ",
"%X#X&X=X*X&X6X5X*X&X>XXXH.t.a.h.g.1.%.1.8.-.;.X.@.j.T.I.k.K.U.N.M.M.v.V.v.B.M.B.N.n.n.n.f.b.b.i.$ . ",
"#X#X=X&X&X5X5X5X5X&X:XE.p.r.a.c.s.1.%.;.=.*.;.@.L.T.T.I.K.P.P.P.U.V.v.v.b.v.v.P.N.N.n.n.n.b.d.i.u   ",
"$X$X&X=X=X=X&X5X&X&XXX' P y.8.8.8.1.%.%.*.*.r.j.T.T.I.T.U.v.B.N.M.I.v.b.b.b.K.P.P.n.n.n.n.b.d.z.L   ",
"OXOX#X$X$X5X#X#X#X&X.X_ ! j.8.1.8.;.%.%.#.*.k.Q.L.T.I.u.u.K.K.P.U.I.F.z.z.z.K.U.k.n.n.n.n.d.d.b./ & ",
"$XoX$X%X$X$X%X$X+X:XXXJ.Q t.f.a.g.8.;.-.;.v.K.I.Y.T.R.D.u.! e.R.Y.F.F.L.L.L.L.K.K.K.K.b.k.k.y.y.^   ",
"+X+X+X$X-X$X$X$X@X@X~.D.! y.y.y.a.8.;.r.r.K.K.I.I.Y.R.H.D.^ Q ! Y.H.S.S.u.u.i.Y.T.I.b.d.j.j.j.b.! & ",
"-X$X$X+X$X$XOXOX@X@XJ.Q t.i.-.d.;.;.;.r.y.b.L.Y.T.H.F.F.S.u.^ K p.A.D.H.D.F.Y.T.i.i.L.L.b.j.r.! ^ > ",
"oX$X-XoX+X+X+X@X@X~.' Q t.y.;.a.;.;.;.y.t.t.F.R.H.S.A.D.A.D.D.L Q D.J.H.H.~.~.~.R.F.i.u.i.z.i.u./ p ",
"}.oXoX_.oXoXoX@XXXE.~ U ! ;.;.&.;.U U ;.! U u.H.u./ D.F.D.G.D.Q ^ ' ' / / D.H.H.Y.H.D.z.H.I.R.H./ p ",
"oX}.`._.`.oXoX@X!.} / / ! ;.;.l U U l U U Z u.H.D.D.D.G.D.D.' / L D F ^ ' ^ / D.D.' u.D.D.u./ ! F w ",
"oXoX{.`.|.oXoX[.{ { ' u.u.;.&.&.U U U U ! p / H.H.H.{ ' } ' ' G.J F ) ] ` ' ' ' ' / ~ Q W W Q Q ' ~ ",
"oX|.oXoXoXoX].[ E { D.u.L.y.;.y.U ! N U Q > ^ } ' } ' } G.' ~ } _ ' ` ~ Y Y F F Y ~ ~ ' ' / ~ Q Y D ",
"_.'.{.|.{.].E.{ { ' ' H.L.z.z.z.e.L ! L K p / G.G.G.} ] ] ` ' _ E T D D E ) ` } ` ` ~ ~ E D 5 > : : ",
"}.{.{.'.].].{.[...' ^ / e.e.t.z.A.' ^ i p D D.!.{ { ` ` ` ] _ ) E E ) ) _ ) E T T T 5 O O O , , < < ",
"_._.'.'.|.|.}. XG.~ Y Q N U U U L L L D p D ~ ] _ _ ) ) ) ) ) ( E ) E T T 0 9 5 : , , , , : : : @ 4 ",
"`._._._.E. ...] } ~ ~ ^ Q Q U p L L L t u A ~ _ [ _ ) ( ( ( T J T 9 5 , : 4 , 1 4 2 2 , 4 < 4 4 X X ",
"| | | |  .E.[.[.} E W W W Q ^ Q L ' ' L J J ` _ ( ( H H G A 7 3 , , 5 , 3 3 1 1 6 q 6 6 4 < 2 O     ",
"`.{.{.|.|.|.[.[...E Y W W W ~ ~ F L ] J _ J H 8 8 8 8 7 3 6 3 3 5 9 5 9 9 8 8 7 q q q q q < O X X   ",
"`.'.{.}.|.[.].E.{ ] _ _ ~ ~ W F F H H t u 3 9 7 0 0 0 0 G A G G A D A 5 8 7 8 q 0 q < + + X X @ X o ",
"]._. ...| [ ( ( E T W T D p D 9 u u A u H S H H G G G G A 0 8 0 8 9 0 A 8 8 4 4 < 4 < 4 4 @ + X O O ",
"E ( T T J J ( ( J H H G G G G H G G H G G H G 0 0 0 0 q q q 0 q 8 7 4 5 7 6 4 4 4 4 4 < @ O X O X O ",
"Y E R E E J J J H H H G G H G G G 0 0 G 0 G G 0 0 0 0 0 0 q q 0 q 7 7 4 7 4 4 4 4 4 4 @ @ O X X X X "
};
